<svg xmlns="http://www.w3.org/2000/svg" xmlns:xlink="http://www.w3.org/1999/xlink" width="30" height="30" viewBox="0 0 30 30">
  <defs>
    <clipPath id="clip-path">
      <rect id="사각형_8678" data-name="사각형 8678" width="30" height="30" fill="none"/>
    </clipPath>
  </defs>
  <g id="그룹_13973" data-name="그룹 13973" clip-path="url(#clip-path)">
    <rect id="사각형_8677" data-name="사각형 8677" width="30" height="30" rx="4.805" transform="translate(0 0)" fill="#00bf19"/>
    <path id="패스_46963" data-name="패스 46963" d="M20.085,23.127c0,2.234-.008,4.358.009,6.482,0,.322-.092.381-.391.377q-2.144-.025-4.288,0c-.29,0-.34-.084-.34-.353q.013-6.489,0-12.979c0-.3.084-.365.37-.363q2.144.022,4.288,0a.6.6,0,0,1,.572.3q2.23,3.292,4.479,6.571c.045.066.06.169.207.164V22.9c0-2.088,0-4.177-.005-6.265,0-.25.047-.341.321-.339q2.181.021,4.363,0c.261,0,.332.073.331.333q-.011,6.508,0,13.016c0,.292-.088.345-.357.342-1.466-.013-2.933-.01-4.4,0a.483.483,0,0,1-.452-.235q-2.263-3.2-4.543-6.4c-.034-.047-.068-.094-.163-.225" transform="translate(-7.537 -8.146)" fill="#fdfefe"/>
  </g>
</svg>
