<svg xmlns="http://www.w3.org/2000/svg" xmlns:xlink="http://www.w3.org/1999/xlink" width="80" height="72.076" viewBox="0 0 80 72.076">
  <defs>
    <clipPath id="clip-path">
      <rect id="사각형_8685" data-name="사각형 8685" width="80" height="72.076" fill="none"/>
    </clipPath>
  </defs>
  <g id="그룹_13988" data-name="그룹 13988" clip-path="url(#clip-path)">
    <path id="패스_47164" data-name="패스 47164" d="M53.843,30.7a6.314,6.314,0,0,1,4.109-4.987,23.916,23.916,0,0,0-6.333-5.509,43.531,43.531,0,0,1,.612-5.044c2.581.8,5.57,1.276,7.857.141,7.937-3.936-3.712-14.031-10.245-12.185A7.461,7.461,0,0,0,46.4,5.141C45.018,1.163,38.146-1.484,33.858.91a12.53,12.53,0,0,0-4.6,5.162c-2.721-2.549-10.572-2.031-14.211.564-7.671,5.471-2.391,12.454,5.9,9.591.044,1.807.1,3.609.124,5.407-6.6,5.08-10.681,13.9-10.681,26.346h13.56c0-13.017,5.774-18.387,13.4-18.387a12.414,12.414,0,0,1,10.065,4.613,6.132,6.132,0,0,1,6.427-3.5M35.1,16.569a26.79,26.79,0,0,0-10.418,2.787c.093-1.5.2-3,.3-4.483a10.624,10.624,0,0,0,3.781-3.113c.213-.291.4-.572.561-.844,1.193,1.568,3.52,1.714,5.8,1.6,0,1.335,0,2.694-.026,4.053m3.366-4.087c2.351-.189,4.847-.749,6.462-2.227a4.919,4.919,0,0,0,3.941,3.465,18.586,18.586,0,0,0-.7,4.769,28.47,28.47,0,0,0-9.858-1.98c.077-1.345.138-2.687.153-4.027" transform="translate(-3.045 0)" fill="#005d2d"/>
    <path id="패스_47165" data-name="패스 47165" d="M86.285,46.862c-.651-2.033-3.056-3.155-5.472-2.554l-.73.182-.065-.749c-.214-2.489-2.06-4.4-4.2-4.357a4.406,4.406,0,0,0-4,4.345l-.056.729-.714-.148a4.4,4.4,0,0,0-5.289,2.655,4.4,4.4,0,0,0,2.864,5.161l.673.282-.364.631A4.1,4.1,0,1,0,75.588,57.8l.479-.55.484.546a4.1,4.1,0,1,0,6.617-4.817l-.37-.628.67-.287a4.4,4.4,0,0,0,2.818-5.2m-9.314,6.132a2.976,2.976,0,1,1,1.922-3.742,2.959,2.959,0,0,1-1.922,3.742" transform="translate(-19.218 -11.538)" fill="#70b32f"/>
    <path id="패스_47166" data-name="패스 47166" d="M53.242,52.976a3.123,3.123,0,0,0-3.825-1.8l-.715.174-.058-.732a3.121,3.121,0,0,0-2.912-3.076,3.083,3.083,0,0,0-2.8,3.032l-.059.711-.7-.149a2.855,2.855,0,1,0-1.722,5.438l.655.278-.361.616a2.856,2.856,0,1,0,4.619,3.348l.472-.535.47.536a2.855,2.855,0,1,0,4.63-3.328l-.359-.617.656-.276a3.081,3.081,0,0,0,2.006-3.621m-6.675,4.566a2.342,2.342,0,1,1,1.53-2.936,2.343,2.343,0,0,1-1.53,2.936" transform="translate(-11.233 -13.929)" fill="#70b32f"/>
    <path id="패스_47167" data-name="패스 47167" d="M106.813,28.119a3.121,3.121,0,0,0-3.824-1.8l-.715.173-.058-.732a3.121,3.121,0,0,0-2.909-3.078,3.083,3.083,0,0,0-2.8,3.031l-.06.711-.7-.148A3.082,3.082,0,0,0,92.028,28.1a3.081,3.081,0,0,0,1.994,3.617l.655.279-.361.616a2.855,2.855,0,1,0,4.617,3.349l.472-.534.47.536a3.081,3.081,0,0,0,4.067.766h0a3.083,3.083,0,0,0,.564-4.092l-.358-.617.658-.276a3.079,3.079,0,0,0,2.007-3.621m-6.678,4.563a2.342,2.342,0,1,1,1.533-2.936,2.345,2.345,0,0,1-1.533,2.936" transform="translate(-26.927 -6.645)" fill="#70b32f"/>
    <path id="패스_47168" data-name="패스 47168" d="M2.746,98.727a.927.927,0,0,1-.336.247,1.318,1.318,0,0,1-.428.117,1.3,1.3,0,0,1-.265,0,2.718,2.718,0,0,1-.289-.034c-.094-.016-.18-.033-.258-.052a1.011,1.011,0,0,1-.175-.055.161.161,0,0,1-.068-.049.136.136,0,0,1,0-.086l.049-.5c0-.035.01-.057.022-.064s.036,0,.075.017a1.493,1.493,0,0,0,.211.074,1.761,1.761,0,0,0,.244.052,2.229,2.229,0,0,0,.243.023.748.748,0,0,0,.216-.021.507.507,0,0,0,.292-.171.579.579,0,0,0,.088-.344.384.384,0,0,0-.02-.11.5.5,0,0,0-.073-.138,1.123,1.123,0,0,0-.144-.159,1.874,1.874,0,0,0-.231-.177c-.178-.117-.329-.228-.455-.327a1.994,1.994,0,0,1-.306-.3,1.052,1.052,0,0,1-.175-.3A1.015,1.015,0,0,1,.9,96.027a1.053,1.053,0,0,1,.09-.436,1.085,1.085,0,0,1,.247-.348,1.137,1.137,0,0,1,.373-.232,1.266,1.266,0,0,1,.462-.083,1.947,1.947,0,0,1,.425.039,1.316,1.316,0,0,1,.294.1c.042.021.066.039.071.053a.177.177,0,0,1,0,.077l-.093.442c-.006.032-.018.051-.034.058a.16.16,0,0,1-.1-.016,1.714,1.714,0,0,0-.421-.093.779.779,0,0,0-.334.035.455.455,0,0,0-.221.165.469.469,0,0,0-.08.283.411.411,0,0,0,.1.256,1.49,1.49,0,0,0,.338.28q.3.2.494.354a1.882,1.882,0,0,1,.314.305.945.945,0,0,1,.165.3,1.129,1.129,0,0,1,.049.341,1.206,1.206,0,0,1-.081.453,1.292,1.292,0,0,1-.221.368" transform="translate(-0.265 -27.811)" fill="#70b32f"/>
    <path id="패스_47169" data-name="패스 47169" d="M7.4,98.1a.208.208,0,0,1-.027.1.088.088,0,0,1-.08.033H5.772a.8.8,0,0,0,.206.515.6.6,0,0,0,.411.177,1.038,1.038,0,0,0,.391-.047,1.368,1.368,0,0,0,.324-.16c.045-.032.076-.04.092-.026s.025.05.025.11v.39a.166.166,0,0,1-.013.078.261.261,0,0,1-.056.058,1.02,1.02,0,0,1-.357.156,1.856,1.856,0,0,1-.426.051,1.143,1.143,0,0,1-.921-.4,1.715,1.715,0,0,1-.338-1.139,2.29,2.29,0,0,1,.068-.551,1.54,1.54,0,0,1,.219-.5,1.24,1.24,0,0,1,.369-.359.953.953,0,0,1,.521-.139,1.038,1.038,0,0,1,.518.12,1,1,0,0,1,.345.322,1.39,1.39,0,0,1,.192.471,2.733,2.733,0,0,1,.058.571ZM6.3,97.048a.362.362,0,0,0-.189.052.548.548,0,0,0-.153.136.858.858,0,0,0-.114.192.806.806,0,0,0-.064.229h.987a.767.767,0,0,0-.032-.214.743.743,0,0,0-.088-.2.48.48,0,0,0-.143-.142.361.361,0,0,0-.2-.058" transform="translate(-1.497 -28.254)" fill="#70b32f"/>
    <path id="패스_47170" data-name="패스 47170" d="M10.146,99.481a.52.52,0,0,1-.236.254.69.69,0,0,1-.323.084q-.049,0-.148-.008a.382.382,0,0,1-.148-.034.1.1,0,0,1-.043-.03.129.129,0,0,1-.01-.062V99.3a.249.249,0,0,1,.012-.085c.008-.021.031-.022.071,0a.345.345,0,0,0,.189.025.1.1,0,0,0,.093-.093,1.427,1.427,0,0,0,.012-.194c0-.1,0-.2,0-.3V96.146c0-.071.03-.105.088-.105h.472c.035,0,.059.008.068.024a.162.162,0,0,1,.015.081v2.533c0,.126,0,.229,0,.31a1.652,1.652,0,0,1-.019.207,1,1,0,0,1-.037.152c-.015.043-.032.087-.051.133m-.2-3.871a.344.344,0,0,1-.267-.12.418.418,0,0,1-.107-.291.439.439,0,0,1,.1-.294.339.339,0,0,1,.27-.122.346.346,0,0,1,.272.122.431.431,0,0,1,.107.294.421.421,0,0,1-.107.291.349.349,0,0,1-.272.12" transform="translate(-2.706 -27.768)" fill="#70b32f"/>
    <path id="패스_47171" data-name="패스 47171" d="M14.179,99.057a1.174,1.174,0,0,1-.43.366,1.261,1.261,0,0,1-.557.123,1.171,1.171,0,0,1-.965-.462,1.451,1.451,0,0,1-.245-.491A2.058,2.058,0,0,1,11.9,98a2.139,2.139,0,0,1,.081-.593,1.451,1.451,0,0,1,.243-.492,1.184,1.184,0,0,1,.406-.332,1.357,1.357,0,0,1,1.128,0,1.188,1.188,0,0,1,.406.336,1.485,1.485,0,0,1,.246.489,2.151,2.151,0,0,1,0,1.172,1.518,1.518,0,0,1-.231.477m-.987-1.989a.5.5,0,0,0-.282.081.673.673,0,0,0-.2.21,1.044,1.044,0,0,0-.122.3,1.433,1.433,0,0,0,0,.687,1.058,1.058,0,0,0,.122.3.658.658,0,0,0,.2.214.5.5,0,0,0,.282.081.508.508,0,0,0,.287-.081.666.666,0,0,0,.2-.214,1.015,1.015,0,0,0,.119-.3A1.531,1.531,0,0,0,13.838,98a1.5,1.5,0,0,0-.038-.338,1.035,1.035,0,0,0-.119-.3.661.661,0,0,0-.2-.213.508.508,0,0,0-.287-.081" transform="translate(-3.486 -28.259)" fill="#70b32f"/>
    <path id="패스_47172" data-name="패스 47172" d="M17.555,99.366a.126.126,0,0,1-.019.083.1.1,0,0,1-.073.021H17.01a.094.094,0,0,1-.078-.025.145.145,0,0,1-.019-.084V97.326c0-.131,0-.265,0-.4a2.205,2.205,0,0,0-.012-.307c-.007-.038,0-.062.01-.073A.16.16,0,0,1,17,96.531h.462a.139.139,0,0,1,.068.01c.009.007.014.026.014.058v.2a1.166,1.166,0,0,1,.265-.211.659.659,0,0,1,.334-.095.837.837,0,0,1,.712.3,1.41,1.41,0,0,1,.226.864v1.717a.125.125,0,0,1-.02.083.1.1,0,0,1-.073.021h-.452c-.065,0-.1-.035-.1-.109V97.753q0-.63-.355-.63a.476.476,0,0,0-.389.173.713.713,0,0,0-.141.468Z" transform="translate(-4.951 -28.268)" fill="#70b32f"/>
    <path id="패스_47173" data-name="패스 47173" d="M22.606,100.342a1.787,1.787,0,0,1-.4-.044,2.5,2.5,0,0,1-.387-.116.119.119,0,0,1-.061-.045.164.164,0,0,1-.007-.081l.029-.453a.149.149,0,0,1,.024-.083c.013-.013.047-.007.1.021a1.6,1.6,0,0,0,.336.129,1.241,1.241,0,0,0,.39.043.648.648,0,0,0,.447-.188.774.774,0,0,0,.2-.506.732.732,0,0,1-.311.229.84.84,0,0,1-.341.068,1.014,1.014,0,0,1-.8-.4,1.351,1.351,0,0,1-.221-.436,1.8,1.8,0,0,1-.078-.545,1.75,1.75,0,0,1,.29-1.069.959.959,0,0,1,.819-.388.71.71,0,0,1,.189.026,1.07,1.07,0,0,1,.185.068.942.942,0,0,1,.16.1.52.52,0,0,1,.112.112v-.2c0-.058.026-.088.078-.088h.448a.087.087,0,0,1,.071.023.175.175,0,0,1,.017.091v2.123a1.83,1.83,0,0,1-.343,1.191,1.158,1.158,0,0,1-.946.416m.127-3.23a.487.487,0,0,0-.394.182,1.013,1.013,0,0,0-.151.634,1.025,1.025,0,0,0,.046.32.848.848,0,0,0,.119.242.512.512,0,0,0,.168.151.38.38,0,0,0,.192.052.467.467,0,0,0,.39-.206.915.915,0,0,0,.156-.564,1.016,1.016,0,0,0-.153-.6.448.448,0,0,0-.372-.216" transform="translate(-6.306 -28.266)" fill="#70b32f"/>
    <path id="패스_47174" data-name="패스 47174" d="M31.181,99.041a.156.156,0,0,1-.078-.013.19.19,0,0,1-.049-.07l-1.4-2.741v2.7a.221.221,0,0,1-.015.1c-.009.013-.04.021-.092.021H29.1a.136.136,0,0,1-.092-.021.17.17,0,0,1-.02-.1v-3.75A.247.247,0,0,1,29,95.051c.011-.018.046-.026.1-.026h.481a.137.137,0,0,1,.078.016.3.3,0,0,1,.053.084l1.386,2.721v-2.7a.193.193,0,0,1,.017-.1c.011-.016.042-.024.091-.024h.438c.058,0,.092.008.1.026a.22.22,0,0,1,.015.1V98.9a.248.248,0,0,1-.019.123c-.013.015-.049.022-.108.022Z" transform="translate(-8.492 -27.839)" fill="#70b32f"/>
    <path id="패스_47175" data-name="패스 47175" d="M35.929,99.468a.1.1,0,0,1-.056-.011c-.008-.007-.012-.028-.012-.062v-.224a.663.663,0,0,1-.27.24.8.8,0,0,1-.372.1,1.221,1.221,0,0,1-.384-.059.7.7,0,0,1-.3-.188.9.9,0,0,1-.187-.306,1.136,1.136,0,0,1-.069-.409.987.987,0,0,1,.122-.489.9.9,0,0,1,.323-.341,1.427,1.427,0,0,1,.479-.177,2.409,2.409,0,0,1,.613-.033c-.02-.275-.13-.426-.33-.453a.71.71,0,0,0-.2.006,1.092,1.092,0,0,0-.2.048c-.063.024-.124.05-.182.079a1.21,1.21,0,0,0-.155.091.331.331,0,0,1-.146.073c-.029,0-.045-.035-.045-.1v-.431a.257.257,0,0,1,.013-.1.145.145,0,0,1,.07-.059,2.26,2.26,0,0,1,.343-.146,1.411,1.411,0,0,1,.465-.068.95.95,0,0,1,.742.271,1.22,1.22,0,0,1,.245.838v1.334c0,.054,0,.107,0,.164s0,.108,0,.159,0,.094.008.132c.006.069,0,.107-.01.114a.166.166,0,0,1-.068.011Zm-.068-1.436a2.475,2.475,0,0,0-.457.044.963.963,0,0,0-.29.107.36.36,0,0,0-.148.161.537.537,0,0,0-.039.209.345.345,0,0,0,.093.257.352.352,0,0,0,.258.091A.5.5,0,0,0,35.7,98.7a1.129,1.129,0,0,0,.163-.664" transform="translate(-10.042 -28.255)" fill="#70b32f"/>
    <path id="패스_47176" data-name="패스 47176" d="M40.132,99.119a1.15,1.15,0,0,1-.233.08,1.093,1.093,0,0,1-.311.029.643.643,0,0,1-.326-.095.572.572,0,0,1-.214-.223.981.981,0,0,1-.083-.339c-.01-.127-.016-.291-.016-.492V96.851H38.6c-.062,0-.092-.035-.092-.1v-.433c0-.069.03-.1.092-.1h.345v-.692c0-.069.033-.1.1-.1H39.5c.062,0,.093.035.093.1v.692H40a.093.093,0,0,1,.076.023.14.14,0,0,1,.017.08v.433a.14.14,0,0,1-.017.08c-.012.016-.037.023-.076.023h-.413v1.471a.779.779,0,0,0,.009.153.154.154,0,0,0,.083.124.253.253,0,0,0,.136.016.609.609,0,0,0,.141-.037.746.746,0,0,0,.107-.047c.026-.014.046-.014.059,0a.125.125,0,0,1,.025.076L40.19,99a.178.178,0,0,1,0,.075.094.094,0,0,1-.053.049" transform="translate(-11.283 -27.953)" fill="#70b32f"/>
    <path id="패스_47177" data-name="패스 47177" d="M42.194,95.61a.343.343,0,0,1-.267-.12.422.422,0,0,1-.107-.291.433.433,0,0,1,.105-.294.336.336,0,0,1,.269-.122.346.346,0,0,1,.273.122.431.431,0,0,1,.107.294.422.422,0,0,1-.107.291.349.349,0,0,1-.273.12m-.247,3.36a.078.078,0,0,1-.061-.021.141.141,0,0,1-.017-.083V96.156a.159.159,0,0,1,.015-.083.075.075,0,0,1,.063-.021h.481a.084.084,0,0,1,.066.021.142.142,0,0,1,.017.083v2.711a.141.141,0,0,1-.017.083.084.084,0,0,1-.066.021Z" transform="translate(-12.252 -27.768)" fill="#70b32f"/>
    <path id="패스_47178" data-name="패스 47178" d="M46.3,99.057a1.163,1.163,0,0,1-.43.366,1.255,1.255,0,0,1-.556.123,1.171,1.171,0,0,1-.965-.462,1.465,1.465,0,0,1-.246-.491A2.083,2.083,0,0,1,44.021,98a2.139,2.139,0,0,1,.08-.593,1.439,1.439,0,0,1,.243-.492,1.177,1.177,0,0,1,.406-.332,1.359,1.359,0,0,1,1.128,0,1.208,1.208,0,0,1,.406.336,1.5,1.5,0,0,1,.245.489,2.151,2.151,0,0,1,0,1.172,1.519,1.519,0,0,1-.232.477m-.986-1.989a.5.5,0,0,0-.282.081.681.681,0,0,0-.2.21,1.024,1.024,0,0,0-.122.3,1.433,1.433,0,0,0,0,.687,1.037,1.037,0,0,0,.122.3.666.666,0,0,0,.2.214.5.5,0,0,0,.282.081.506.506,0,0,0,.286-.081.668.668,0,0,0,.2-.214,1.014,1.014,0,0,0,.119-.3A1.531,1.531,0,0,0,45.96,98a1.5,1.5,0,0,0-.039-.338,1.034,1.034,0,0,0-.119-.3.663.663,0,0,0-.2-.213.506.506,0,0,0-.286-.081" transform="translate(-12.896 -28.259)" fill="#70b32f"/>
    <path id="패스_47179" data-name="패스 47179" d="M49.677,99.366a.13.13,0,0,1-.019.083.1.1,0,0,1-.074.021h-.453a.1.1,0,0,1-.078-.025.14.14,0,0,1-.019-.084V97.326c0-.131,0-.265,0-.4a2.181,2.181,0,0,0-.013-.307c-.007-.038,0-.062.01-.073a.162.162,0,0,1,.088-.016h.462a.139.139,0,0,1,.068.01c.009.007.015.026.015.058v.2a1.145,1.145,0,0,1,.264-.211.659.659,0,0,1,.334-.095.837.837,0,0,1,.712.3,1.4,1.4,0,0,1,.226.864v1.717a.125.125,0,0,1-.02.083.1.1,0,0,1-.073.021h-.452c-.065,0-.1-.035-.1-.109V97.753q0-.63-.355-.63a.477.477,0,0,0-.389.173.716.716,0,0,0-.141.468Z" transform="translate(-14.362 -28.268)" fill="#70b32f"/>
    <path id="패스_47180" data-name="패스 47180" d="M55.165,99.468a.1.1,0,0,1-.056-.011c-.008-.007-.013-.028-.013-.062v-.224a.659.659,0,0,1-.27.24.8.8,0,0,1-.371.1,1.229,1.229,0,0,1-.385-.059.7.7,0,0,1-.3-.188.919.919,0,0,1-.187-.306,1.152,1.152,0,0,1-.067-.409.979.979,0,0,1,.122-.489.9.9,0,0,1,.323-.341,1.422,1.422,0,0,1,.479-.177,2.409,2.409,0,0,1,.613-.033c-.021-.275-.13-.426-.331-.453a.705.705,0,0,0-.2.006,1.063,1.063,0,0,0-.2.048c-.063.024-.124.05-.182.079a1.119,1.119,0,0,0-.155.091.332.332,0,0,1-.146.073c-.03,0-.044-.035-.044-.1v-.431a.277.277,0,0,1,.012-.1.144.144,0,0,1,.071-.059,2.26,2.26,0,0,1,.343-.146,1.408,1.408,0,0,1,.465-.068.952.952,0,0,1,.742.271,1.224,1.224,0,0,1,.245.838v1.334c0,.054,0,.107,0,.164s0,.108,0,.159,0,.094.007.132c.007.069,0,.107-.01.114a.163.163,0,0,1-.068.011ZM55.1,98.032a2.482,2.482,0,0,0-.457.044.97.97,0,0,0-.29.107.354.354,0,0,0-.148.161.537.537,0,0,0-.039.209.319.319,0,0,0,.35.349.5.5,0,0,0,.421-.205,1.124,1.124,0,0,0,.163-.664" transform="translate(-15.677 -28.255)" fill="#70b32f"/>
    <path id="패스_47181" data-name="패스 47181" d="M58.128,98.929a.077.077,0,0,1-.061-.02.141.141,0,0,1-.017-.084V94.761a.159.159,0,0,1,.014-.083.077.077,0,0,1,.064-.02h.481a.081.081,0,0,1,.065.02.14.14,0,0,1,.018.083v4.063a.145.145,0,0,1-.018.084.081.081,0,0,1-.065.02Z" transform="translate(-17.006 -27.731)" fill="#70b32f"/>
    <path id="패스_47182" data-name="패스 47182" d="M65.391,99.045a.231.231,0,0,1-.082-.012.126.126,0,0,1-.053-.076l-.307-.858H63.437l-.307.858a.135.135,0,0,1-.051.076.211.211,0,0,1-.08.012h-.472a.135.135,0,0,1-.1-.028c-.016-.019-.014-.054,0-.1l1.415-3.787a.12.12,0,0,1,.117-.09h.472a.129.129,0,0,1,.083.019.226.226,0,0,1,.044.075l1.406,3.783c.019.052.021.087.007.1a.151.151,0,0,1-.1.025Zm-1.726-1.587h1.056L64.2,95.986Z" transform="translate(-18.285 -27.843)" fill="#70b32f"/>
    <path id="패스_47183" data-name="패스 47183" d="M69.833,97.183a.571.571,0,0,0-.17-.049.312.312,0,0,0-.136.012.4.4,0,0,0-.187.136.682.682,0,0,0-.107.219,1.246,1.246,0,0,0-.046.259c-.007.09-.01.177-.01.26v1.342a.161.161,0,0,1-.017.087c-.011.016-.035.022-.071.022h-.467c-.036,0-.059-.006-.069-.021a.192.192,0,0,1-.014-.093V97.3c0-.112,0-.228,0-.349s0-.222,0-.3a.134.134,0,0,1,.02-.088.1.1,0,0,1,.073-.021h.467c.049,0,.074.028.074.083v.2a1.078,1.078,0,0,1,.16-.192.411.411,0,0,1,.2-.115.753.753,0,0,1,.2-.014.29.29,0,0,1,.153.05.119.119,0,0,1,.032.038.184.184,0,0,1,.007.061V97.1a.145.145,0,0,1-.019.084c-.013.016-.036.016-.069,0" transform="translate(-20.077 -28.27)" fill="#70b32f"/>
    <path id="패스_47184" data-name="패스 47184" d="M72.276,98.831a.119.119,0,0,1-.018.076.088.088,0,0,1-.065.018h-.452a.129.129,0,0,1-.08-.018c-.015-.013-.023-.043-.023-.091V94.722a.138.138,0,0,1,.02-.091.1.1,0,0,1,.073-.018h.462c.039,0,.063.006.073.018a.171.171,0,0,1,.015.091v1.451a.841.841,0,0,1,.267-.2.72.72,0,0,1,.322-.083,1.016,1.016,0,0,1,.469.107.991.991,0,0,1,.349.3,1.452,1.452,0,0,1,.221.481,2.39,2.39,0,0,1,.078.638,2.571,2.571,0,0,1-.076.648,1.509,1.509,0,0,1-.216.489.947.947,0,0,1-.348.306,1.009,1.009,0,0,1-.474.107.643.643,0,0,1-.175-.025,1.059,1.059,0,0,1-.168-.068.873.873,0,0,1-.148-.1.565.565,0,0,1-.107-.115Zm.525-2.32a.436.436,0,0,0-.206.049.46.46,0,0,0-.168.156.852.852,0,0,0-.115.278,1.837,1.837,0,0,0-.041.422,1.611,1.611,0,0,0,.046.413,1,1,0,0,0,.119.286.511.511,0,0,0,.168.167.39.39,0,0,0,.2.054.454.454,0,0,0,.385-.213,1.715,1.715,0,0,0,0-1.394.451.451,0,0,0-.39-.218" transform="translate(-20.987 -27.718)" fill="#70b32f"/>
    <path id="패스_47185" data-name="패스 47185" d="M78.423,99.057a1.159,1.159,0,0,1-.431.366,1.252,1.252,0,0,1-.556.123,1.2,1.2,0,0,1-.563-.126,1.189,1.189,0,0,1-.4-.336,1.465,1.465,0,0,1-.246-.491A2.108,2.108,0,0,1,76.144,98a2.166,2.166,0,0,1,.08-.593,1.438,1.438,0,0,1,.243-.492,1.181,1.181,0,0,1,.405-.332,1.36,1.36,0,0,1,1.129,0,1.2,1.2,0,0,1,.405.336,1.484,1.484,0,0,1,.245.489,2.046,2.046,0,0,1,.083.591,2.071,2.071,0,0,1-.08.58,1.55,1.55,0,0,1-.232.477m-.986-1.989a.5.5,0,0,0-.281.081.688.688,0,0,0-.2.21,1.108,1.108,0,0,0-.121.3,1.457,1.457,0,0,0,0,.687,1.123,1.123,0,0,0,.121.3.672.672,0,0,0,.2.214.494.494,0,0,0,.281.081.51.51,0,0,0,.287-.081.664.664,0,0,0,.2-.214.977.977,0,0,0,.119-.3A1.492,1.492,0,0,0,78.083,98a1.462,1.462,0,0,0-.039-.338,1,1,0,0,0-.119-.3.659.659,0,0,0-.2-.213.51.51,0,0,0-.287-.081" transform="translate(-22.307 -28.259)" fill="#70b32f"/>
    <path id="패스_47186" data-name="패스 47186" d="M82.46,97.183a.581.581,0,0,0-.17-.049.313.313,0,0,0-.136.012.4.4,0,0,0-.187.136.682.682,0,0,0-.107.219,1.245,1.245,0,0,0-.046.259c-.006.09-.01.177-.01.26v1.342a.154.154,0,0,1-.017.087c-.011.016-.035.022-.071.022h-.467c-.036,0-.058-.006-.068-.021a.189.189,0,0,1-.015-.093V97.3c0-.112,0-.228,0-.349s-.006-.222-.006-.3a.139.139,0,0,1,.02-.088.1.1,0,0,1,.073-.021h.467c.049,0,.074.028.074.083v.2a1.109,1.109,0,0,1,.16-.192.411.411,0,0,1,.2-.115.756.756,0,0,1,.2-.014.287.287,0,0,1,.153.05.1.1,0,0,1,.032.038.184.184,0,0,1,.007.061V97.1a.145.145,0,0,1-.019.084c-.013.016-.036.016-.068,0" transform="translate(-23.776 -28.27)" fill="#70b32f"/>
    <path id="패스_47187" data-name="패스 47187" d="M86.3,98.1a.217.217,0,0,1-.027.1.091.091,0,0,1-.081.033H84.671a.8.8,0,0,0,.207.515.6.6,0,0,0,.411.177,1.042,1.042,0,0,0,.392-.047,1.364,1.364,0,0,0,.323-.16c.045-.032.076-.04.093-.026s.024.05.024.11v.39a.178.178,0,0,1-.012.078.288.288,0,0,1-.057.058,1.02,1.02,0,0,1-.357.156,1.855,1.855,0,0,1-.425.051,1.143,1.143,0,0,1-.922-.4,1.719,1.719,0,0,1-.338-1.139,2.325,2.325,0,0,1,.068-.551,1.54,1.54,0,0,1,.219-.5,1.234,1.234,0,0,1,.37-.359.948.948,0,0,1,.52-.139,1.035,1.035,0,0,1,.518.12,1,1,0,0,1,.345.322,1.39,1.39,0,0,1,.192.471,2.686,2.686,0,0,1,.059.571Zm-1.1-1.051a.364.364,0,0,0-.189.052.536.536,0,0,0-.153.136.834.834,0,0,0-.115.192.806.806,0,0,0-.064.229h.987a.741.741,0,0,0-.032-.214.72.72,0,0,0-.087-.2.491.491,0,0,0-.144-.142.361.361,0,0,0-.2-.058" transform="translate(-24.612 -28.254)" fill="#70b32f"/>
    <path id="패스_47188" data-name="패스 47188" d="M89.817,99.119a1.135,1.135,0,0,1-.233.08,1.091,1.091,0,0,1-.311.029.647.647,0,0,1-.326-.095.583.583,0,0,1-.214-.223.981.981,0,0,1-.083-.339q-.015-.191-.015-.492V96.851h-.345c-.062,0-.092-.035-.092-.1v-.433c0-.069.03-.1.092-.1h.345v-.692c0-.069.033-.1.1-.1h.448c.061,0,.092.035.092.1v.692h.413a.093.093,0,0,1,.076.023.147.147,0,0,1,.016.08v.433a.147.147,0,0,1-.016.08c-.012.016-.037.023-.076.023h-.413v1.471a.709.709,0,0,0,.01.153.151.151,0,0,0,.083.124.252.252,0,0,0,.136.016.618.618,0,0,0,.141-.037.784.784,0,0,0,.107-.047c.026-.014.046-.014.058,0a.116.116,0,0,1,.025.076l.044.391a.178.178,0,0,1,0,.075.1.1,0,0,1-.054.049" transform="translate(-25.839 -27.953)" fill="#70b32f"/>
    <path id="패스_47189" data-name="패스 47189" d="M93.37,99.5a.12.12,0,0,1-.071-.015.084.084,0,0,1-.016-.059v-.2a.561.561,0,0,1-.115.133.838.838,0,0,1-.153.1,1.089,1.089,0,0,1-.17.068.622.622,0,0,1-.165.025.853.853,0,0,1-.715-.3,1.356,1.356,0,0,1-.238-.859V96.671a.143.143,0,0,1,.019-.083.089.089,0,0,1,.074-.026h.448a.081.081,0,0,1,.077.035.159.159,0,0,1,.019.08V98.31a1.4,1.4,0,0,0,.027.3.534.534,0,0,0,.076.187.273.273,0,0,0,.119.1.412.412,0,0,0,.158.029.456.456,0,0,0,.362-.18.867.867,0,0,0,.148-.559V96.671a.143.143,0,0,1,.019-.083.089.089,0,0,1,.074-.026H93.8a.074.074,0,0,1,.075.037.178.178,0,0,1,.017.083v2.086c0,.1,0,.213,0,.325s0,.213,0,.3a.2.2,0,0,1-.013.088c-.008.013-.034.021-.08.021Z" transform="translate(-26.872 -28.289)" fill="#70b32f"/>
    <path id="패스_47190" data-name="패스 47190" d="M99.555,99.472a.112.112,0,0,1-.078-.022.124.124,0,0,1-.025-.087V97.615a.509.509,0,0,0-.107-.336.335.335,0,0,0-.267-.127.417.417,0,0,0-.218.059.532.532,0,0,0-.166.164.844.844,0,0,0-.1.239,1.1,1.1,0,0,0-.037.281v1.473c0,.069-.03.1-.093.1H98a.114.114,0,0,1-.078-.022.124.124,0,0,1-.024-.087V97.615a.556.556,0,0,0-.09-.354.318.318,0,0,0-.259-.109.449.449,0,0,0-.37.17.623.623,0,0,0-.136.4v1.644a.129.129,0,0,1-.019.083.1.1,0,0,1-.073.021H96.5a.1.1,0,0,1-.078-.025.148.148,0,0,1-.019-.084V96.936c0-.13,0-.23-.01-.3a.092.092,0,0,1,.012-.08c.014-.016.046-.023.095-.023h.453a.152.152,0,0,1,.068.009c.01.007.014.027.014.058v.213a1.093,1.093,0,0,1,.261-.21.6.6,0,0,1,.308-.091.808.808,0,0,1,.44.13.88.88,0,0,1,.32.348,1.2,1.2,0,0,1,.145-.186,1.116,1.116,0,0,1,.178-.156.846.846,0,0,1,.2-.109.6.6,0,0,1,.226-.043,1.14,1.14,0,0,1,.4.068.857.857,0,0,1,.309.2.876.876,0,0,1,.2.319,1.241,1.241,0,0,1,.071.435v1.852a.118.118,0,0,1-.022.083.111.111,0,0,1-.076.021Z" transform="translate(-28.239 -28.27)" fill="#70b32f"/>
    <path id="패스_47191" data-name="패스 47191" d="M4.575,81.709H.684L.25,81.344c-.2-.151-.276-.293-.241-.428s.174-.2.417-.2h6.9V77.672c0-.043-.02-.064-.059-.064H1.836l-.447-.352c-.2-.158-.274-.3-.235-.433s.18-.2.424-.2h6.17a.789.789,0,0,1,.576.233.763.763,0,0,1,.235.561v3.295H9.735a.335.335,0,0,1,.329.251.661.661,0,0,1-.006.5.338.338,0,0,1-.323.245H5.82v1.812H7.643a.776.776,0,0,1,.564.232.757.757,0,0,1,.235.559V86.9a.466.466,0,0,1-.305.46.763.763,0,0,1-.617,0,.465.465,0,0,1-.311-.46V84.577c0-.043-.02-.064-.059-.064H1.883l-.446-.365c-.2-.158-.275-.3-.235-.433s.18-.194.423-.194h2.95Z" transform="translate(0 -22.449)" fill="#244a27"/>
    <path id="패스_47192" data-name="패스 47192" d="M23.687,76.475v5.572a.42.42,0,0,1-.306.409.837.837,0,0,1-.617,0,.421.421,0,0,1-.312-.409V81.016a5.587,5.587,0,0,1-3.409,1.056H16.482a.71.71,0,0,1-.552-.252.829.829,0,0,1-.223-.566V79.8l-.377-.2c-.274-.151-.392-.312-.352-.485s.192-.257.458-.257h4.032V77.77H15.777l-.447-.365c-.2-.158-.276-.3-.241-.433s.175-.194.418-.194h4.607a.573.573,0,0,1,.44.17.627.627,0,0,1,.159.446v1.761a.717.717,0,0,1-.165.49.549.549,0,0,1-.435.189H16.929v1.032q0,.213.223.213h1.892a5.858,5.858,0,0,0,3.409-.905V77l-.54-.352c-.212-.142-.3-.3-.259-.465s.2-.252.481-.252h1a.466.466,0,0,1,.553.54m0,6.843v2.891q0,.906-.8.906h-4.7a.693.693,0,0,1-.776-.793v-2.5l-.541-.352c-.25-.158-.354-.319-.311-.477s.221-.239.535-.239H18.1a.524.524,0,0,1,.54.578v.855h3.808V83.82l-.54-.352q-.342-.225-.276-.472t.5-.244h1a.539.539,0,0,1,.406.151.572.572,0,0,1,.147.416m-5.043,2.815h3.808v-.968H18.645Z" transform="translate(-4.386 -22.246)" fill="#244a27"/>
    <path id="패스_47193" data-name="패스 47193" d="M34.393,83.821c.062.445,0,.7-.177.773s-.422-.081-.728-.46l-1.811-2.615a7.414,7.414,0,0,1-2.644,2.893q-.375.226-.535-.064t.171-.579A8.264,8.264,0,0,0,30.532,81.1a8.458,8.458,0,0,0,.841-2.893l-.506-.3q-.376-.24-.323-.5c.035-.173.194-.258.476-.258h1.245a.5.5,0,0,1,.506.578,7.933,7.933,0,0,1-.623,2.767l1.211,1.66a3.327,3.327,0,0,1,.688.7,3.173,3.173,0,0,1,.346.956m1.775-6.728v8.816a.42.42,0,0,1-.311.409.853.853,0,0,1-.623,0,.421.421,0,0,1-.312-.409V81.065H33.383l-.436-.364c-.2-.159-.276-.3-.241-.427s.175-.189.417-.189h1.8V77.608l-.529-.352c-.211-.143-.3-.3-.265-.466s.2-.251.477-.251h1a.494.494,0,0,1,.564.554m1.975-.617V86.65a.421.421,0,0,1-.306.409.837.837,0,0,1-.617,0,.421.421,0,0,1-.312-.409V77l-.541-.352c-.211-.142-.3-.3-.264-.465s.194-.252.477-.252H37.59a.483.483,0,0,1,.552.54" transform="translate(-8.334 -22.246)" fill="#244a27"/>
    <path id="패스_47194" data-name="패스 47194" d="M53.386,82.64H44.336l-.436-.365c-.2-.159-.276-.307-.241-.44s.175-.2.417-.2h4.15v-.678L47.7,80.6c-.212-.142-.3-.3-.265-.465s.194-.252.477-.252h1.023c.359.033.54.2.54.515v1.232h3.913a.336.336,0,0,1,.329.252.672.672,0,0,1-.006.5.338.338,0,0,1-.323.252m-.529-2.428q.424.5.218.768t-.829-.064l-3.7-1.936A9.052,9.052,0,0,1,44.982,80.9a.383.383,0,0,1-.517-.214c-.086-.209,0-.365.247-.465a9.781,9.781,0,0,0,2-1.119,6.58,6.58,0,0,0,1.568-1.485H45.405l-.447-.352c-.187-.151-.264-.3-.229-.433s.175-.207.418-.207h7.169a.335.335,0,0,1,.329.244.666.666,0,0,1-.006.5.338.338,0,0,1-.323.251H49.66a4.545,4.545,0,0,1-.388.566l2.01,1.032c.124.033.239.065.341.094s.2.059.283.088a1.415,1.415,0,0,1,.24.106,1.6,1.6,0,0,1,.224.158,2.693,2.693,0,0,1,.487.547m-.881,5.055a2.04,2.04,0,0,1-.865,1.667,4.142,4.142,0,0,1-4.524,0,2.018,2.018,0,0,1,.012-3.32,4.039,4.039,0,0,1,4.5,0,2.04,2.04,0,0,1,.876,1.652m-1.763.957a1.156,1.156,0,0,0,.529-.957,1.169,1.169,0,0,0-.529-.961,2.207,2.207,0,0,0-1.363-.4,2.235,2.235,0,0,0-1.37.4,1.166,1.166,0,0,0-.535.961,1.154,1.154,0,0,0,.535.957,2.271,2.271,0,0,0,1.37.39,2.242,2.242,0,0,0,1.363-.39" transform="translate(-12.788 -22.449)" fill="#244a27"/>
    <path id="패스_47195" data-name="패스 47195" d="M63.188,83.352H59.3l-.436-.364c-.2-.151-.276-.293-.24-.427s.174-.2.417-.2h9.309a.336.336,0,0,1,.329.251.656.656,0,0,1-.006.5.338.338,0,0,1-.323.244H64.434v3.334a.427.427,0,0,1-.31.421.843.843,0,0,1-.624,0,.428.428,0,0,1-.311-.421Zm4.961-2.439q.363.541.159.779t-.818-.087l-3.961-2.3a10.336,10.336,0,0,1-3.819,2.364q-.375.139-.517-.17c-.094-.206-.023-.374.211-.51q3.243-1.785,4.044-3.457l-.47-.29q-.378-.239-.324-.5c.035-.173.194-.259.475-.259h1.293a.575.575,0,0,1,.43.2.463.463,0,0,1,.064.427,4.692,4.692,0,0,1-.718,1.421l2.422,1.359.47.163a3.292,3.292,0,0,1,.382.164,1.335,1.335,0,0,1,.334.259,3.059,3.059,0,0,1,.341.433" transform="translate(-17.172 -22.407)" fill="#244a27"/>
    <path id="패스_47196" data-name="패스 47196" d="M82.133,77.333v2.553a.869.869,0,0,1-.194.54.623.623,0,0,1-.522.251H79.395v1.056h3.914a.335.335,0,0,1,.329.246.661.661,0,0,1-.006.5.339.339,0,0,1-.323.251h-9.05l-.434-.364c-.2-.152-.277-.294-.242-.428s.175-.2.418-.2h4.149V80.678h-2.01a.625.625,0,0,1-.535-.245.845.845,0,0,1-.182-.509V77.71l-.539-.352a.384.384,0,0,1-.206-.446c.042-.189.185-.283.428-.283h6.323a.623.623,0,0,1,.7.7M82.016,84.6v2.3a.466.466,0,0,1-.3.46.763.763,0,0,1-.617,0,.466.466,0,0,1-.312-.46V84.866c0-.042-.02-.064-.059-.064H75.458l-.447-.365q-.294-.238-.235-.426c.04-.126.18-.189.424-.189h6.018a.787.787,0,0,1,.564.227.739.739,0,0,1,.235.554M80.9,77.622H76.656v2.063H80.9Z" transform="translate(-21.555 -22.449)" fill="#244a27"/>
    <path id="패스_47197" data-name="패스 47197" d="M97.777,76.475v7.584a.4.4,0,0,1-.194.352.774.774,0,0,1-.846,0,.4.4,0,0,1-.194-.352v-.667h-2.08l-.447-.365c-.2-.158-.276-.3-.24-.428s.174-.188.417-.188h2.35V81.229a6.018,6.018,0,0,1-1.433.535,5.844,5.844,0,0,1-1.34.2h-1.21V83.33a.429.429,0,0,1-.313.421.853.853,0,0,1-.623,0,.429.429,0,0,1-.311-.421V81.959H89.067l-.447-.365c-.2-.151-.274-.294-.235-.428s.176-.2.411-.2h5.137a5.26,5.26,0,0,0,2.609-.642V77L96,76.652a.646.646,0,0,1-.259-.308.254.254,0,0,1,.071-.29.6.6,0,0,1,.411-.119h1a.577.577,0,0,1,.429.132.585.585,0,0,1,.124.409m-2.728,1.849a2.03,2.03,0,0,1-.776,1.628,3.432,3.432,0,0,1-4.013,0,2.078,2.078,0,0,1,.011-3.238,3.322,3.322,0,0,1,3.991,0,2.041,2.041,0,0,1,.787,1.61m2.492,8.8H92.322a.888.888,0,0,1-.7-.271.925.925,0,0,1-.24-.635V85.052l-.482-.34q-.365-.25-.283-.49t.506-.239h.952a.479.479,0,0,1,.541.542v1.37a.209.209,0,0,0,.235.239H97.54a.475.475,0,0,1,.453.246.489.489,0,0,1,0,.5.473.473,0,0,1-.453.251m-3.667-8.8a1.134,1.134,0,0,0-.47-.9,1.744,1.744,0,0,0-1.14-.384,1.768,1.768,0,0,0-1.146.384,1.1,1.1,0,0,0,0,1.81,1.764,1.764,0,0,0,1.146.384,1.74,1.74,0,0,0,1.14-.384,1.145,1.145,0,0,0,.47-.911" transform="translate(-25.891 -22.246)" fill="#244a27"/>
  </g>
</svg>
