<svg xmlns="http://www.w3.org/2000/svg" width="73" height="14.996" viewBox="0 0 73 14.996">
  <g id="그룹_12619" data-name="그룹 12619" transform="translate(15695 19186.846)">
    <g id="사각형_8463" data-name="사각형 8463" transform="translate(-15695 -19172.85)" fill="#29863b" stroke="#29863b" stroke-linecap="round" stroke-width="1">
      <rect width="72.929" height="1" rx="0.5" stroke="none"/>
      <rect x="0.5" y="0.5" width="71.929" fill="none"/>
    </g>
    <g id="패스_45919" data-name="패스 45919" transform="translate(-15636.214 -19186.846) rotate(45)" fill="#29863b" stroke-linecap="round">
      <path d="M 19.60062217712402 0.6012797355651855 L 0.5075958371162415 0.5050757527351379 C 0.5041958093643188 0.5050557851791382 0.5000158548355103 0.5008757710456848 0.4999958276748657 0.4974857568740845 L 19.59369659423828 0.5962157845497131 C 19.59627342224121 0.5962309241294861 19.59930038452148 0.5986385345458984 19.60062217712402 0.6012797355651855 Z" stroke="none"/>
      <path d="M 0.4974174499511719 -7.152557373046875e-07 C 0.4982795715332031 -7.152557373046875e-07 0.4991416931152344 1.430511474609375e-06 0.5000057220458984 5.7220458984375e-06 L 19.59621620178223 0.09622573852539062 C 19.87375640869141 0.09761571884155273 20.09988594055176 0.3237457871437073 20.10128593444824 0.6012857556343079 C 20.10268592834473 0.8788257837295532 19.87882041931152 1.102685689926147 19.60128593444824 1.101285815238953 L 0.50506591796875 1.00506579875946 C 0.2275257110595703 1.003675818443298 0.001405715942382812 0.7775458097457886 5.7220458984375e-06 0.5000057816505432 C -0.001390457153320312 0.2233297228813171 0.2210750579833984 -7.152557373046875e-07 0.4974174499511719 -7.152557373046875e-07 Z" stroke="none" fill="#29863b"/>
    </g>
  </g>
</svg>
