<svg id="ico_32_map" xmlns="http://www.w3.org/2000/svg" width="32" height="32" viewBox="0 0 32 32">
  <rect id="사각형_4621" data-name="사각형 4621" width="32" height="32" fill="none"/>
  <path id="Vector" d="M0,5.409V17.257c0,2.314,1.644,3.263,3.641,2.119L6.5,17.744a2.717,2.717,0,0,1,2.3-.061l6.393,3.2a2.762,2.762,0,0,0,2.3-.061L22.77,17.8A2.727,2.727,0,0,0,24,15.686V3.838c0-2.314-1.644-3.263-3.641-2.119L17.5,3.351a2.717,2.717,0,0,1-2.3.061L8.8.222A2.762,2.762,0,0,0,6.5.283L1.23,3.3A2.691,2.691,0,0,0,0,5.409Z" transform="translate(4 3.445)" fill="#bfd7e0"/>
  <path id="교차_175" data-name="교차 175" d="M17011.2-6447.668l-6.395-3.2a2.232,2.232,0,0,0-.8-.214v-17.456a2.323,2.323,0,0,1,.8.208l6.395,3.19a2.723,2.723,0,0,0,1.8.137v17.471a2.965,2.965,0,0,1-.723.087A2.519,2.519,0,0,1,17011.2-6447.668Z" transform="translate(-16992 6472)" fill="#a2c6d3"/>
  <path id="합치기_12" data-name="합치기 12" d="M16999.488-6456.1c-1.922-1.853-4.119-4.849-3.32-8.384,1.369-6.027,10.3-6.023,11.666,0,.8,3.535-1.4,6.527-3.326,8.379a3.61,3.61,0,0,1-2.508,1.012A3.619,3.619,0,0,1,16999.488-6456.1Z" transform="translate(-16978.035 6483.479)" fill="#6684ea"/>
  <circle id="타원_161" data-name="타원 161" cx="2.5" cy="2.5" r="2.5" transform="translate(21.5 17.5)" fill="#fff"/>
</svg>
