<svg xmlns="http://www.w3.org/2000/svg" width="24" height="24" viewBox="0 0 24 24">
  <g id="ico_24_cafe" transform="translate(-44 -512)">
    <rect id="사각형_6338" data-name="사각형 6338" width="24" height="24" transform="translate(44 512)" fill="none"/>
    <g id="사각형_6425" data-name="사각형 6425" transform="translate(46 520)" fill="none" stroke="#fff" stroke-width="1.5">
      <path d="M3,0H15a3,3,0,0,1,3,3V5a9,9,0,0,1-9,9H9A9,9,0,0,1,0,5V3A3,3,0,0,1,3,0Z" stroke="none"/>
      <path d="M3.133.75H14.867A2.383,2.383,0,0,1,17.25,3.133V5A8.25,8.25,0,0,1,9,13.25H9A8.25,8.25,0,0,1,.75,5V3.133A2.383,2.383,0,0,1,3.133.75Z" fill="none"/>
    </g>
    <path id="Vector" d="M0,0V.542a2.439,2.439,0,1,0,4.879,0V0" transform="translate(63.5 527.152) rotate(-90)" fill="none" stroke="#fff" stroke-linecap="round" stroke-linejoin="round" stroke-width="1.5"/>
    <path id="Vector-2" data-name="Vector" d="M0,0V3" transform="translate(55 515)" fill="none" stroke="#fff" stroke-linecap="round" stroke-linejoin="round" stroke-width="1.5"/>
    <path id="Vector-3" data-name="Vector" d="M0,0V2" transform="translate(60 516)" fill="none" stroke="#fff" stroke-linecap="round" stroke-linejoin="round" stroke-width="1.5"/>
    <path id="Vector-4" data-name="Vector" d="M0,0V2" transform="translate(50 516)" fill="none" stroke="#fff" stroke-linecap="round" stroke-linejoin="round" stroke-width="1.5"/>
  </g>
</svg>
