<svg xmlns="http://www.w3.org/2000/svg" xmlns:xlink="http://www.w3.org/1999/xlink" width="24" height="24" viewBox="0 0 24 24">
  <defs>
    <clipPath id="clip-path">
      <rect id="사각형_6709" data-name="사각형 6709" width="22.095" height="23.98" transform="translate(0 0)" fill="#d69630"/>
    </clipPath>
  </defs>
  <g id="그룹_10548" data-name="그룹 10548" transform="translate(-98 -566)">
    <rect id="사각형_6711" data-name="사각형 6711" width="24" height="24" transform="translate(98 566)" fill="#fff"/>
    <g id="그룹_10547" data-name="그룹 10547" transform="translate(98.749 566)">
      <g id="그룹_10547-2" data-name="그룹 10547" clip-path="url(#clip-path)">
        <path id="패스_39460" data-name="패스 39460" d="M25.81,435.922a4.393,4.393,0,0,0-1.736-.307,5.891,5.891,0,0,0-4.487,1.833c-1.507,1.984-1.232,3.87-.751,5.955.987,4.282,1.761,6.539,2.588,7.547a3.02,3.02,0,0,0,2.335,1.127,3.368,3.368,0,0,0,1.216-.236c1.563-.6,2.077-1.9,1.666-4.2-.071-.4-.228-.962-.38-1.509-.117-.422-.228-.82-.267-1.034a3.6,3.6,0,0,1,.768-3A6.769,6.769,0,0,0,27.386,441c.944-2.246.325-4.239-1.577-5.076" transform="translate(-18.137 -428.097)" fill="#d69630"/>
        <path id="패스_39461" data-name="패스 39461" d="M455.032,222.652a.969.969,0,0,0-.316-.053,1.55,1.55,0,0,0-1.332,1.138,1.4,1.4,0,0,0,.631,1.87.971.971,0,0,0,.316.053,1.549,1.549,0,0,0,1.332-1.138,1.848,1.848,0,0,0,.047-1.1,1.1,1.1,0,0,0-.678-.765" transform="translate(-445.449 -218.757)" fill="#d69630"/>
        <path id="패스_39462" data-name="패스 39462" d="M332.467,241.337h.032a1.063,1.063,0,0,0,.934-1.116.942.942,0,1,0-.965,1.115" transform="translate(-325.875 -234.902)" fill="#d69630"/>
        <path id="패스_39463" data-name="패스 39463" d="M214.973,253.153c.023,0,.046,0,.07,0a1,1,0,0,0,.772-1.183,1.026,1.026,0,0,0-.913-1.019c-.023,0-.046,0-.069,0a1,1,0,0,0-.772,1.184,1.026,1.026,0,0,0,.913,1.019" transform="translate(-210.359 -246.616)" fill="#d69630"/>
        <path id="패스_39464" data-name="패스 39464" d="M104.3,289.575a.735.735,0,0,0,.087-.005,1.008,1.008,0,0,0,.748-1.21,1.042,1.042,0,0,0-.925-1,.734.734,0,0,0-.087.005,1.007,1.007,0,0,0-.748,1.209,1.042,1.042,0,0,0,.925,1" transform="translate(-101.578 -282.398)" fill="#d69630"/>
        <path id="패스_39465" data-name="패스 39465" d="M.9,353.912a.7.7,0,0,0,.107-.008.779.779,0,0,0,.571-.444,1.211,1.211,0,0,0,.1-.718.982.982,0,0,0-.883-.913.7.7,0,0,0-.107.008A.95.95,0,0,0,.015,353a.982.982,0,0,0,.883.913" transform="translate(0.001 -345.756)" fill="#d69630"/>
        <path id="패스_39466" data-name="패스 39466" d="M722.76,212.955a4.394,4.394,0,0,0-1.736.307c-1.9.838-2.521,2.83-1.577,5.076a6.769,6.769,0,0,0,.624,1.094,3.6,3.6,0,0,1,.768,3c-.039.215-.15.614-.267,1.035-.152.547-.309,1.114-.38,1.51-.411,2.3.1,3.6,1.666,4.208a3.38,3.38,0,0,0,1.216.243h0a3.027,3.027,0,0,0,2.335-1.134c.827-1.008,1.6-3.272,2.588-7.554.481-2.084.756-3.971-.751-5.955a5.89,5.89,0,0,0-4.487-1.833" transform="translate(-706.603 -209.28)" fill="#d69630"/>
        <path id="패스_39467" data-name="패스 39467" d="M683.457,3.057A.971.971,0,0,0,683.774,3a1.4,1.4,0,0,0,.631-1.87A1.549,1.549,0,0,0,683.073,0a.971.971,0,0,0-.316.053,1.1,1.1,0,0,0-.678.765,1.849,1.849,0,0,0,.047,1.105,1.55,1.55,0,0,0,1.332,1.139Z" transform="translate(-670.245 0.004)" fill="#d69630"/>
        <path id="패스_39468" data-name="패스 39468" d="M843.19,18.728h.032a1.046,1.046,0,0,0,.868-1.193,1.063,1.063,0,0,0-.934-1.116h-.032a1.046,1.046,0,0,0-.868,1.193,1.063,1.063,0,0,0,.933,1.116" transform="translate(-827.72 -16.135)" fill="#d69630"/>
        <path id="패스_39469" data-name="패스 39469" d="M964.5,30.544c.023,0,.046,0,.069,0h0a1.026,1.026,0,0,0,.913-1.019,1,1,0,0,0-.773-1.183c-.023,0-.046,0-.069,0a1.026,1.026,0,0,0-.913,1.019,1,1,0,0,0,.772,1.183" transform="translate(-947.092 -27.853)" fill="#d69630"/>
        <path id="패스_39470" data-name="패스 39470" d="M1074.4,66.965a.732.732,0,0,0,.087.005h0a1.042,1.042,0,0,0,.925-1,1.008,1.008,0,0,0-.748-1.209.74.74,0,0,0-.087-.005,1.042,1.042,0,0,0-.926,1,1.008,1.008,0,0,0,.748,1.209" transform="translate(-1055.116 -63.634)" fill="#d69630"/>
        <path id="패스_39471" data-name="패스 39471" d="M1183.178,129.23a.7.7,0,0,0-.107-.008.982.982,0,0,0-.883.913,1.212,1.212,0,0,0,.1.718.779.779,0,0,0,.571.444.705.705,0,0,0,.107.008.982.982,0,0,0,.883-.913.95.95,0,0,0-.67-1.162" transform="translate(-1161.769 -126.992)" fill="#d69630"/>
      </g>
    </g>
  </g>
</svg>
