<svg xmlns="http://www.w3.org/2000/svg" width="81" height="20" viewBox="0 0 81 20">
  <defs>
    <style>
      .cls-1 {
        fill: #111;
      }

      .cls-2 {
        fill: #ff3482;
      }

      .cls-3 {
        fill: #fff;
        font-size: 8px;
        font-family: MalgunGothic, Malgun Gothic;
        letter-spacing: -0.04em;
      }
    </style>
  </defs>
  <g id="그룹_12147" data-name="그룹 12147" transform="translate(-20 -18)">
    <g id="logo" transform="translate(0 -44)">
      <path id="합치기_5" data-name="합치기 5" class="cls-1" d="M24.834,15.263a4.763,4.763,0,0,1,1.554-3.529H20.695v-2.6H27.9a1.856,1.856,0,0,1-.276-.977,1.811,1.811,0,1,1,3.621,0,1.857,1.857,0,0,1-.276.977h7.366v2.6H32.592a4.762,4.762,0,0,1,1.554,3.529,4.657,4.657,0,1,1-9.312,0Zm2.587,0a2.07,2.07,0,1,0,2.069-2.105A2.091,2.091,0,0,0,27.42,15.263Zm21.505,3.576H46.909V13.293h3.1v2.6H58v2.948Zm6.553-7.1V.3H58V11.734Zm-3.529,0V6.717a1.811,1.811,0,1,1,0-3.5V.3h2.521V11.734Zm-36.3,0V.3h2.52V11.734Zm-4.033,0V6.377a1.811,1.811,0,1,1,0-3.332V.3h2.52V11.734Zm-4.361-.261L4.953,5.212,2.875,11.473H0L3.851.561H6l4.082,10.912Zm32.058-6.21a5.174,5.174,0,1,1,10.347,0,5.174,5.174,0,1,1-10.347,0Zm2.875,0a2.3,2.3,0,1,0,2.3-2.339A2.323,2.323,0,0,0,42.194,5.263Zm-7.418,2.39L29.668,2.678,24.3,7.653H20.86l5.32-5.295H21.955V.041H37.079V2.358H33l5.264,5.295Z" transform="translate(20 62)"/>
      <path id="패스_9448" data-name="패스 9448" class="cls-1" d="M-8.959.12h.279V-3.155h-.279Zm-1.227-2.1v.245h.555V-.047h.274V-3.084h-.274v1.1Zm-.328-.868h-.279v.636A1.656,1.656,0,0,1-11.523-.8l.185.216A1.692,1.692,0,0,0-10.649-1.6a1.6,1.6,0,0,0,.658.938l.167-.224a1.591,1.591,0,0,1-.69-1.342ZM-8.1-1.829a1.565,1.565,0,0,0,1.219-.663,1.563,1.563,0,0,0,1.219.663l.107-.229C-6.13-2.119-6.677-2.4-6.7-2.767h1.037V-3H-8.1v.234H-7.07c-.021.367-.568.647-1.138.709Zm1.36-.164h-.284v.469H-8.375v.24H-5.39v-.24H-6.742Zm-.143.977c-.709,0-1.131.2-1.131.565s.422.563,1.131.563,1.125-.2,1.128-.563S-6.179-1.016-6.885-1.016Zm0,.9c-.529,0-.839-.122-.836-.336s.307-.339.836-.339.836.122.839.339S-6.359-.112-6.885-.114Zm3.1-2.1a1.815,1.815,0,0,0,1.226.947l.135-.242c-.571-.107-1.211-.607-1.211-1.167v-.253h-.3v.253c0,.563-.638,1.058-1.206,1.167l.133.242A1.823,1.823,0,0,0-3.781-2.21ZM-5.265-.325h3V-.568h-3ZM.381-1.847V-3.155H.092V.12H.381V-1.6H.928v-.247ZM-.507-.714v-2.11H-2.018v2.11ZM-.8-2.592V-.951h-.94V-2.592ZM1.637-1.386v-.524H3.5v-.234H1.637v-.487H3.572v-.24H1.345v1.722H3.609v-.237ZM.957-.307h3V-.55h-3ZM5.7-1.287H6.772v-.234H6.259V-2.6H6.78v-.24H4.333v.24h.518v1.076H4.339v.234H5.412v.753H4.068v.247h3V-.534H5.7ZM5.975-2.6v1.076H5.138V-2.6ZM9.89-1.386V-3.155H9.6V-2.4h-.63v.237H9.6v.779Zm-.883-.448a7.582,7.582,0,0,1-1.373.083v-.388h1.11v-.227H7.634v-.349h1.2v-.24H7.348v1.438h.24A7.989,7.989,0,0,0,9.033-1.6ZM8.062-.479H9.89v-.758H7.767v.232H9.6V-.7H7.775V.084h2.24V-.148H8.062Z" transform="translate(31.522 79.197)"/>
    </g>
    <g id="그룹_12146" data-name="그룹 12146">
      <path id="합치기_109" data-name="합치기 109" class="cls-2" d="M16999,20088h6l-7,4Zm-3,0v-12h19v12Z" transform="translate(-16914 -20058)"/>
      <text id="베타" class="cls-3" transform="translate(84 27)"><tspan x="0" y="0">베타</tspan></text>
    </g>
  </g>
</svg>
