<svg id="ico_24_movie_filled" xmlns="http://www.w3.org/2000/svg" width="24" height="24" viewBox="0 0 24 24">
  <g id="video-circle">
    <path id="Vector" d="M19.983,9.991A9.991,9.991,0,1,1,9.991,0,9.991,9.991,0,0,1,19.983,9.991Z" transform="translate(2.009 2.009)" fill="#fff"/>
    <path id="Vector-2" data-name="Vector" d="M0,0H24V24H0Z" fill="none" opacity="0"/>
    <g id="다각형_6" data-name="다각형 6" transform="translate(18.5 6.5) rotate(90)" fill="#292d32">
      <path d="M 7.617459774017334 9.250004768371582 L 3.382539987564087 9.250004768371582 C 2.936039924621582 9.250004768371582 2.533809900283813 9.02054500579834 2.306550025939941 8.636204719543457 C 2.079299926757812 8.25185489654541 2.072099924087524 7.788834571838379 2.287270069122314 7.397604465484619 L 4.404729843139648 3.547684669494629 C 4.62775993347168 3.14217472076416 5.037209987640381 2.900084733963013 5.5 2.900084733963013 C 5.962790012359619 2.900084733963013 6.37224006652832 3.14217472076416 6.595270156860352 3.547684669494629 L 8.712730407714844 7.397604465484619 C 8.927900314331055 7.788834571838379 8.920700073242188 8.25185489654541 8.693449974060059 8.636204719543457 C 8.466190338134766 9.02054500579834 8.063960075378418 9.250004768371582 7.617459774017334 9.250004768371582 Z" stroke="none"/>
      <path d="M 5.5 3.65007495880127 C 5.389589786529541 3.65007495880127 5.185850143432617 3.683724403381348 5.061890125274658 3.909114837646484 L 2.944430351257324 7.759044647216797 C 2.82483959197998 7.976494789123535 2.897930145263672 8.162784576416016 2.952150344848633 8.254484176635742 C 3.006360054016113 8.346174240112305 3.134369850158691 8.500004768371582 3.382540225982666 8.500004768371582 L 7.617460250854492 8.500004768371582 C 7.865630149841309 8.500004768371582 7.993639945983887 8.346174240112305 8.047849655151367 8.254484176635742 C 8.102069854736328 8.162784576416016 8.175159454345703 7.976494789123535 8.055569648742676 7.759044647216797 L 5.938109874725342 3.909114837646484 C 5.814139842987061 3.683724403381348 5.610410213470459 3.65007495880127 5.5 3.65007495880127 M 5.5 2.15007209777832 C 6.186252593994141 2.15007209777832 6.872505187988281 2.49545955657959 7.252429962158203 3.186234474182129 L 9.369890213012695 7.0361647605896 C 10.10299015045166 8.369064331054688 9.138660430908203 10.00000476837158 7.617460250854492 10.00000476837158 L 3.382540225982666 10.00000476837158 C 1.861339569091797 10.00000476837158 0.8970098495483398 8.369064331054688 1.630109786987305 7.0361647605896 L 3.747570037841797 3.186234474182129 C 4.127494812011719 2.49545955657959 4.813747406005859 2.15007209777832 5.5 2.15007209777832 Z" stroke="none" fill="#292d32"/>
    </g>
  </g>
</svg>
