<svg xmlns="http://www.w3.org/2000/svg" xmlns:xlink="http://www.w3.org/1999/xlink" width="32" height="11" viewBox="0 0 32 11">
  <defs>
    <clipPath id="clip-path">
      <rect id="사각형_8562" data-name="사각형 8562" width="32" height="11" fill="none"/>
    </clipPath>
  </defs>
  <g id="그룹_13000" data-name="그룹 13000" clip-path="url(#clip-path)">
    <path id="패스_46243" data-name="패스 46243" d="M7.18,2.281h0A2.261,2.261,0,0,0,4.953,0H.233A.237.237,0,0,0,0,.239V10.761A.237.237,0,0,0,.233,11H1.806a.237.237,0,0,0,.233-.239V7.053H2.1a33.535,33.535,0,0,0,4.592-2.8c.522-.422.492-1.268.492-1.969m-2.24.655c-.007.154-.116.2-.329.347-.5.336-1.56.948-2.284,1.358H2.161a.091.091,0,0,1-.09-.092V2.264a.091.091,0,0,1,.09-.092H4.388a.56.56,0,0,1,.551.565Z" transform="translate(0 0)" fill="#fefbfb"/>
    <path id="패스_46244" data-name="패스 46244" d="M14.848.239A.237.237,0,0,0,14.614,0H12.029a.237.237,0,0,0-.234.239L9.109,10.76a.237.237,0,0,0,.233.24h1.573a.237.237,0,0,0,.233-.24l.416-1.629L14.6,7.246l.9,3.514a.238.238,0,0,0,.234.24H17.3a.237.237,0,0,0,.233-.24ZM12.306,6.227l1.015-3.979.738,2.889Z" transform="translate(-2.212 0)" fill="#fefbfb"/>
    <path id="패스_46245" data-name="패스 46245" d="M26.635,3.617h1.689a.237.237,0,0,0,.233-.239V2.423A2.44,2.44,0,0,0,27.951.81,2.081,2.081,0,0,0,26.635.026,2.377,2.377,0,0,0,26.309,0h-2.58a2.329,2.329,0,0,0-1.71.756,2.641,2.641,0,0,0-.654,1.751V3.779A2.463,2.463,0,0,0,23.22,6.324a10.025,10.025,0,0,0,1.069.211c.358.05.722.062,1.078.114a2,2,0,0,1,.787.22c.5.312.363.945.363,1.454a.766.766,0,0,1-.273.588.727.727,0,0,1-.469.173H24.145a.727.727,0,0,1-.469-.173.764.764,0,0,1-.273-.586V7.77a.237.237,0,0,0-.233-.238H21.6a.237.237,0,0,0-.233.239v.806a2.435,2.435,0,0,0,1.006,1.975,2.325,2.325,0,0,0,1.034.422,2.259,2.259,0,0,0,.326.026h2.58a2.367,2.367,0,0,0,2.11-1.334,2.443,2.443,0,0,0,.257-1.089V7.319a2.78,2.78,0,0,0-2.424-2.642,12.747,12.747,0,0,0-1.62-.156c-.516-.031-1.214-.246-1.214-.885V2.848a.871.871,0,0,1,.725-.879H25.91c.4.009.505.56.492.879v.53a.237.237,0,0,0,.233.239" transform="translate(-5.187 0)" fill="#fefbfb"/>
    <path id="패스_46246" data-name="패스 46246" d="M37.877,3.617h1.689a.237.237,0,0,0,.233-.239V2.423A2.44,2.44,0,0,0,39.193.81,2.081,2.081,0,0,0,37.877.026,2.377,2.377,0,0,0,37.551,0H34.97a2.329,2.329,0,0,0-1.71.756,2.641,2.641,0,0,0-.654,1.751V3.779a2.463,2.463,0,0,0,1.856,2.545,10.025,10.025,0,0,0,1.069.211c.358.05.722.062,1.078.114a2,2,0,0,1,.787.22c.5.312.363.945.363,1.454a.766.766,0,0,1-.273.588.727.727,0,0,1-.469.173H35.387a.727.727,0,0,1-.469-.173.764.764,0,0,1-.273-.586V7.77a.237.237,0,0,0-.233-.238H32.838a.237.237,0,0,0-.233.239v.806a2.435,2.435,0,0,0,1.006,1.975,2.325,2.325,0,0,0,1.034.422A2.259,2.259,0,0,0,34.97,11h2.58a2.367,2.367,0,0,0,2.11-1.334,2.443,2.443,0,0,0,.257-1.089V7.319a2.78,2.78,0,0,0-2.424-2.642,12.747,12.747,0,0,0-1.62-.156c-.516-.031-1.214-.246-1.214-.885V2.848a.871.871,0,0,1,.725-.879h1.768c.4.009.505.56.492.879v.53a.237.237,0,0,0,.233.239" transform="translate(-7.917 0)" fill="#fefbfb"/>
  </g>
</svg>
