<svg xmlns="http://www.w3.org/2000/svg" xmlns:xlink="http://www.w3.org/1999/xlink" width="32" height="29" viewBox="0 0 32 29">
  <defs>
    <clipPath id="clip-path">
      <rect id="사각형_8563" data-name="사각형 8563" width="32" height="29" fill="none"/>
    </clipPath>
  </defs>
  <g id="그룹_13002" data-name="그룹 13002" clip-path="url(#clip-path)">
    <path id="패스_46247" data-name="패스 46247" d="M2.6,2.6H7.8V0H0V7.8H2.6Zm0,18.592H0V29H7.8V26.4H2.6ZM17.19,25.58a1.37,1.37,0,0,0-1.517,1.2,5.433,5.433,0,0,1-.808,1.968c-.055.083-.117.167-.178.251h3.14a7.258,7.258,0,0,0,.564-1.9,1.369,1.369,0,0,0-1.2-1.519m-2.362-6.924a7.144,7.144,0,0,1,1.81-4.9,1.368,1.368,0,0,0-2.1-1.758h0a9.934,9.934,0,0,0-2.45,6.663c.01,1.89.384,3.491.371,4.632a2.758,2.758,0,0,1-.405,1.638,4.276,4.276,0,0,1-2.065,1.4A1.368,1.368,0,1,0,11,28.873a6.925,6.925,0,0,0,3.315-2.408,5.481,5.481,0,0,0,.879-3.177c-.013-1.62-.38-3.133-.37-4.632m6.579-9.513a8.672,8.672,0,0,0-2.355.328,1.369,1.369,0,1,0,.739,2.636,5.961,5.961,0,0,1,1.615-.226c2.049-.012,4.07,1.139,6.1,2.823,1.525,1.26,3,2.77,4.5,4.111V15.077c-.872-.823-1.786-1.678-2.751-2.481-2.2-1.818-4.752-3.441-7.841-3.453M32,8.728V0h-7.8V2.6h5.2V6.814a15.942,15.942,0,0,0-8.16-2.352,13.556,13.556,0,0,0-7.9,2.512A14.022,14.022,0,0,0,7.3,19.211a29.281,29.281,0,0,0,.317,4.1,1.369,1.369,0,1,0,2.71-.386,26.287,26.287,0,0,1-.29-3.716c.035-3.954,1.08-7.281,4.88-10A10.8,10.8,0,0,1,21.239,7.2a13.669,13.669,0,0,1,8.889,3.528c.606.535,1.235,1.063,1.873,1.589V8.729h0M24.281,20.418A1.368,1.368,0,0,0,22.123,22.1a48.718,48.718,0,0,0,4.562,4.958A28.3,28.3,0,0,0,28.978,29H32V27.734c-.151-.085-.3-.175-.462-.278-2.876-1.812-6.448-5.981-7.257-7.038M27.3,17.159a15.022,15.022,0,0,0-3.271-2.6,6.085,6.085,0,0,0-2.489-.582,4.308,4.308,0,0,0-3.575,1.857,6.563,6.563,0,0,0-1.1,3.8,8.586,8.586,0,0,0,.294,2.2A19.667,19.667,0,0,0,21.64,29H25.5c-.122-.112-.245-.222-.365-.336-2.825-2.625-4.927-5.9-5.336-7.54a5.8,5.8,0,0,1-.2-1.493,3.871,3.871,0,0,1,.6-2.211,1.541,1.541,0,0,1,1.345-.709,3.384,3.384,0,0,1,1.371.343,15.37,15.37,0,0,1,2.511,2.1c1.22,1.154,2.677,2.6,4.156,3.979.826.768,1.67,1.438,2.418,2.036v-3.54c-.186-.163-.373-.327-.552-.5-1.438-1.34-2.883-2.778-4.143-3.967" transform="translate(0 0.001)" fill="#fff"/>
  </g>
</svg>
